<svg width="21" height="17" viewBox="0 0 21 17" fill="none" xmlns="http://www.w3.org/2000/svg">
<path d="M1.45762 16.1413L10.5009 3.38945L19.5442 16.1413C19.7058 16.3696 19.9227 16.4974 20.1486 16.4974C20.3744 16.4974 20.5913 16.3696 20.7529 16.1413C20.8311 16.0304 20.8933 15.898 20.9357 15.752C20.9781 15.6059 21 15.4491 21 15.2906C21 15.1322 20.9781 14.9754 20.9357 14.8293C20.8933 14.6832 20.8311 14.5509 20.7529 14.44L11.1324 0.871539C10.9635 0.633322 10.7369 0.499999 10.5009 0.499999C10.265 0.499999 10.0384 0.633321 9.86945 0.871538L0.248952 14.4374C0.170165 14.5483 0.107544 14.681 0.064786 14.8276C0.0220277 14.9741 -2.63026e-07 15.1316 -2.76932e-07 15.2906C-2.90839e-07 15.4497 0.0220277 15.6072 0.064786 15.7537C0.107544 15.9003 0.170165 16.0329 0.248952 16.1439C0.410526 16.3722 0.627427 16.5 0.853287 16.5C1.07915 16.5 1.29605 16.3722 1.45762 16.1439L1.45762 16.1413Z" fill="white"/>
</svg>
