<svg width="10" height="13" viewBox="0 0 10 13" fill="none" xmlns="http://www.w3.org/2000/svg">
<path d="M0.224199 0.902337L8.19409 6.50057L0.224199 12.0988C0.0815158 12.1988 0.00163575 12.3331 0.00163574 12.4729C0.00163574 12.6127 0.0815158 12.747 0.224199 12.847C0.293501 12.8955 0.376219 12.9339 0.46751 12.9602C0.558801 12.9865 0.656829 13 0.755852 13C0.854875 13 0.952903 12.9865 1.04419 12.9602C1.13548 12.9339 1.2182 12.8955 1.28751 12.847L9.76779 6.89149C9.91667 6.7869 10 6.64662 10 6.50057C10 6.35452 9.91667 6.21425 9.76779 6.10966L1.28914 0.154113C1.21979 0.10534 1.13687 0.0665746 1.04527 0.0401052C0.953679 0.0136357 0.85527 -6.21988e-07 0.755852 -6.23174e-07C0.656435 -6.24359e-07 0.558025 0.0136357 0.466431 0.0401052C0.374838 0.0665746 0.291917 0.10534 0.222563 0.154113C0.0798794 0.254135 1.50392e-07 0.388407 1.48724e-07 0.528225C1.47057e-07 0.668044 0.0798794 0.802315 0.222563 0.902337L0.224199 0.902337Z" fill="white"/>
</svg>
