<svg width="24" height="18" viewBox="0 0 24 18" fill="none" xmlns="http://www.w3.org/2000/svg">
<path d="M1.66585 17.5964L12.0011 3.25063L22.3363 17.5964C22.5209 17.8533 22.7688 17.9971 23.0269 17.9971C23.2851 17.9971 23.5329 17.8533 23.7176 17.5964C23.807 17.4717 23.878 17.3228 23.9265 17.1585C23.975 16.9942 24 16.8177 24 16.6395C24 16.4612 23.975 16.2848 23.9265 16.1205C23.878 15.9561 23.807 15.8072 23.7176 15.6825L12.7227 0.417983C12.5297 0.149989 12.2707 3.02516e-07 12.0011 2.78944e-07C11.7314 2.55372e-07 11.4725 0.149988 11.2794 0.417983L0.284515 15.6795C0.194473 15.8044 0.122906 15.9536 0.0740396 16.1185C0.025173 16.2834 -1.88395e-06 16.4605 -1.8996e-06 16.6395C-1.91524e-06 16.8184 0.0251729 16.9956 0.0740395 17.1604C0.122906 17.3253 0.194473 17.4745 0.284515 17.5994C0.469171 17.8562 0.717058 18 0.975184 18C1.23331 18 1.4812 17.8562 1.66585 17.5994L1.66585 17.5964Z" fill="#AF68F4"/>
</svg>
