<svg width="10" height="13" viewBox="0 0 10 13" fill="none" xmlns="http://www.w3.org/2000/svg">
<path d="M9.7758 12.0977L1.80591 6.49943L9.7758 0.901191C9.91848 0.801169 9.99836 0.666897 9.99836 0.527079C9.99836 0.387261 9.91848 0.252989 9.7758 0.152967C9.7065 0.104537 9.62378 0.0660617 9.53249 0.0397955C9.4412 0.0135292 9.34317 -2.87109e-08 9.24415 -3.30394e-08C9.14512 -3.73678e-08 9.0471 0.0135292 8.95581 0.0397954C8.86452 0.0660617 8.7818 0.104537 8.71249 0.152967L0.232212 6.10851C0.083327 6.2131 -2.77715e-07 6.35337 -2.84099e-07 6.49943C-2.90483e-07 6.64548 0.083327 6.78575 0.232212 6.89034L8.71086 12.8459C8.78021 12.8947 8.86313 12.9334 8.95473 12.9599C9.04632 12.9864 9.14473 13 9.24415 13C9.34356 13 9.44197 12.9864 9.53357 12.9599C9.62516 12.9334 9.70808 12.8947 9.77744 12.8459C9.92012 12.7459 10 12.6116 10 12.4718C10 12.332 9.92012 12.1977 9.77744 12.0977L9.7758 12.0977Z" fill="white"/>
</svg>
