<svg width="21" height="17" viewBox="0 0 21 17" fill="none" xmlns="http://www.w3.org/2000/svg">
<path d="M19.5424 0.858719L10.4991 13.6105L1.45577 0.858719C1.2942 0.630425 1.0773 0.502617 0.851435 0.502617C0.625575 0.502617 0.408675 0.630425 0.247101 0.858719C0.168867 0.969601 0.106715 1.10195 0.064285 1.24802C0.021855 1.39408 0 1.55093 0 1.70936C0 1.8678 0.021855 2.02464 0.064285 2.17071C0.106715 2.31678 0.168867 2.44913 0.247101 2.56001L9.8676 16.1285C10.0365 16.3667 10.2631 16.5 10.4991 16.5C10.735 16.5 10.9616 16.3667 11.1305 16.1285L20.751 2.56263C20.8298 2.45166 20.8925 2.31899 20.9352 2.17244C20.978 2.02589 21 1.86843 21 1.70936C21 1.5503 20.978 1.39284 20.9352 1.24629C20.8925 1.09974 20.8298 0.967066 20.751 0.8561C20.5895 0.627807 20.3726 0.5 20.1467 0.5C19.9209 0.5 19.704 0.627807 19.5424 0.8561V0.858719Z" fill="white"/>
</svg>
