<svg width="18" height="18" viewBox="0 0 18 18" fill="none" xmlns="http://www.w3.org/2000/svg">
<path d="M0.263737 16.4628C0.180122 16.5464 0.113796 16.6457 0.0685446 16.755C0.0232927 16.8642 5.80384e-07 16.9813 5.80384e-07 17.0995C5.80384e-07 17.2178 0.0232927 17.3349 0.0685446 17.4441C0.113796 17.5534 0.180122 17.6526 0.263737 17.7363C0.347351 17.8199 0.446616 17.8862 0.555864 17.9315C0.665112 17.9767 0.782203 18 0.900452 18C1.0187 18 1.13579 17.9767 1.24504 17.9315C1.35429 17.8862 1.45355 17.8199 1.53717 17.7363L9 10.2723L16.4628 17.7363C16.6317 17.9051 16.8607 18 17.0995 18C17.3384 18 17.5674 17.9051 17.7363 17.7363C17.9051 17.5674 18 17.3384 18 17.0995C18 16.8607 17.9051 16.6317 17.7363 16.4628L10.2723 9L17.7363 1.53716C17.9051 1.3683 18 1.13926 18 0.90045C18 0.661636 17.9051 0.432603 17.7363 0.263736C17.5674 0.0948685 17.3384 1.77931e-09 17.0995 0C16.8607 -1.7793e-09 16.6317 0.0948685 16.4628 0.263736L9 7.7277L1.53717 0.263736C1.3683 0.0948685 1.13927 -4.7076e-09 0.900452 0C0.661637 4.7076e-09 0.432604 0.0948685 0.263737 0.263736C0.0948695 0.432603 5.85092e-07 0.661636 5.80384e-07 0.90045C5.75676e-07 1.13926 0.0948695 1.3683 0.263737 1.53716L7.7277 9L0.263737 16.4628Z" fill="white"/>
</svg>
