<svg width="70" height="20" viewBox="0 0 70 20" fill="none" xmlns="http://www.w3.org/2000/svg">
<circle cx="60" cy="10" r="10" fill="#6B6B6B"/>
<circle cx="35" cy="10" r="10" fill="#6B6B6B"/>
<circle cx="10" cy="10" r="10" fill="#6B6B6B"/>
<path d="M64.6667 4C65.0203 4 65.3594 4.14048 65.6095 4.39052C65.8595 4.64057 66 4.97971 66 5.33333V14.6667C66 15.0203 65.8595 15.3594 65.6095 15.6095C65.3594 15.8595 65.0203 16 64.6667 16H55.3333C54.9797 16 54.6406 15.8595 54.3905 15.6095C54.1405 15.3594 54 15.0203 54 14.6667V5.33333C54 4.97971 54.1405 4.64057 54.3905 4.39052C54.6406 4.14048 54.9797 4 55.3333 4H64.6667ZM64.3333 14.3333V10.8C64.3333 10.2236 64.1044 9.6708 63.6968 9.26322C63.2892 8.85564 62.7364 8.62667 62.16 8.62667C61.5933 8.62667 60.9333 8.97333 60.6133 9.49333V8.75333H58.7533V14.3333H60.6133V11.0467C60.6133 10.5333 61.0267 10.1133 61.54 10.1133C61.7875 10.1133 62.0249 10.2117 62.2 10.3867C62.375 10.5617 62.4733 10.7991 62.4733 11.0467V14.3333H64.3333ZM56.5867 7.70667C56.8837 7.70667 57.1686 7.58867 57.3786 7.37863C57.5887 7.16859 57.7067 6.88371 57.7067 6.58667C57.7067 5.96667 57.2067 5.46 56.5867 5.46C56.2879 5.46 56.0013 5.5787 55.79 5.78999C55.5787 6.00128 55.46 6.28786 55.46 6.58667C55.46 7.20667 55.9667 7.70667 56.5867 7.70667ZM57.5133 14.3333V8.75333H55.6667V14.3333H57.5133Z" fill="#CDCDCD"/>
<path d="M41 10.015C41 6.69474 38.312 4 35 4C31.688 4 29 6.69474 29 10.015C29 12.9263 31.064 15.3504 33.8 15.9098V11.8195H32.6V10.015H33.8V8.51128C33.8 7.35038 34.742 6.40601 35.9 6.40601H37.4V8.21053H36.2C35.87 8.21053 35.6 8.4812 35.6 8.81203V10.015H37.4V11.8195H35.6V16C38.63 15.6992 41 13.1368 41 10.015Z" fill="#CDCDCD"/>
<path d="M7.48 4H12.52C14.44 4 16 5.56 16 7.48V12.52C16 13.443 15.6334 14.3281 14.9807 14.9807C14.3281 15.6334 13.443 16 12.52 16H7.48C5.56 16 4 14.44 4 12.52V7.48C4 6.55705 4.36664 5.6719 5.01927 5.01927C5.6719 4.36664 6.55705 4 7.48 4ZM7.36 5.2C6.78713 5.2 6.23773 5.42757 5.83265 5.83265C5.42757 6.23773 5.2 6.78713 5.2 7.36V12.64C5.2 13.834 6.166 14.8 7.36 14.8H12.64C13.2129 14.8 13.7623 14.5724 14.1674 14.1674C14.5724 13.7623 14.8 13.2129 14.8 12.64V7.36C14.8 6.166 13.834 5.2 12.64 5.2H7.36ZM13.15 6.1C13.3489 6.1 13.5397 6.17902 13.6803 6.31967C13.821 6.46032 13.9 6.65109 13.9 6.85C13.9 7.04891 13.821 7.23968 13.6803 7.38033C13.5397 7.52098 13.3489 7.6 13.15 7.6C12.9511 7.6 12.7603 7.52098 12.6197 7.38033C12.479 7.23968 12.4 7.04891 12.4 6.85C12.4 6.65109 12.479 6.46032 12.6197 6.31967C12.7603 6.17902 12.9511 6.1 13.15 6.1ZM10 7C10.7956 7 11.5587 7.31607 12.1213 7.87868C12.6839 8.44129 13 9.20435 13 10C13 10.7956 12.6839 11.5587 12.1213 12.1213C11.5587 12.6839 10.7956 13 10 13C9.20435 13 8.44129 12.6839 7.87868 12.1213C7.31607 11.5587 7 10.7956 7 10C7 9.20435 7.31607 8.44129 7.87868 7.87868C8.44129 7.31607 9.20435 7 10 7ZM10 8.2C9.52261 8.2 9.06477 8.38964 8.72721 8.72721C8.38964 9.06477 8.2 9.52261 8.2 10C8.2 10.4774 8.38964 10.9352 8.72721 11.2728C9.06477 11.6104 9.52261 11.8 10 11.8C10.4774 11.8 10.9352 11.6104 11.2728 11.2728C11.6104 10.9352 11.8 10.4774 11.8 10C11.8 9.52261 11.6104 9.06477 11.2728 8.72721C10.9352 8.38964 10.4774 8.2 10 8.2Z" fill="#CDCDCD"/>
</svg>
